<?xml version="1.0" encoding="UTF-8"?>
<!DOCTYPE svg PUBLIC "-//W3C//DTD SVG 1.1//EN" "http://www.w3.org/Graphics/SVG/1.1/DTD/svg11.dtd">
<svg xmlns="http://www.w3.org/2000/svg" version="1.1" width="500px" height="500px" style="shape-rendering:geometricPrecision; text-rendering:geometricPrecision; image-rendering:optimizeQuality; fill-rule:evenodd; clip-rule:evenodd" xmlns:xlink="http://www.w3.org/1999/xlink">
<g><path style="opacity:0.856" fill="#373434" d="M 283.5,421.5 C 236.884,425.532 192.551,417.366 150.5,397C 132.508,386.084 115.674,373.584 100,359.5C 88.6972,343.561 80.0306,326.228 74,307.5C 71.0025,290.182 68.0025,272.849 65,255.5C 64.3333,250.167 64.3333,244.833 65,239.5C 73.8711,213.556 83.5377,187.889 94,162.5C 112.374,141.794 130.374,120.794 148,99.5C 157.249,90.4757 167.416,82.809 178.5,76.5C 197.915,65.0855 218.915,59.2522 241.5,59C 261.759,56.1861 281.092,59.1861 299.5,68C 330.4,80.2388 356.9,98.7388 379,123.5C 390.637,136.781 401.304,150.781 411,165.5C 421.449,186.18 429.115,207.846 434,230.5C 433.889,258.388 428.889,285.388 419,311.5C 405.832,329.158 394.165,347.824 384,367.5C 365.748,390.893 342.248,406.727 313.5,415C 303.642,417.871 293.642,420.038 283.5,421.5 Z M 314.5,409.5 C 375.758,373.863 407.758,320.363 410.5,249C 406.967,172.515 370.967,117.515 302.5,84C 270.408,70.5824 237.075,66.0824 202.5,70.5C 208.495,67.9136 214.828,66.0803 221.5,65C 236.452,63.227 251.285,62.3937 266,62.5C 297.11,69.7977 325.61,83.2977 351.5,103C 369.818,119.645 386.318,137.812 401,157.5C 416.178,183.092 426.011,209.926 430.5,238C 428.949,263.424 423.449,287.924 414,311.5C 408.947,317.552 404.281,323.885 400,330.5C 393.586,342.329 386.92,353.996 380,365.5C 363.028,387.248 341.195,401.914 314.5,409.5 Z"/></g>
<g><path style="opacity:0.997" fill="#e76e78" d="M 314.5,409.5 C 313.508,409.328 312.842,409.662 312.5,410.5C 311.508,410.328 310.842,410.662 310.5,411.5C 287.427,419.007 263.761,421.507 239.5,419C 185.89,414.71 140.057,393.877 102,356.5C 91.9148,342.332 83.9148,326.999 78,310.5C 75.2163,293.798 72.2163,277.131 69,260.5C 66.4896,250.275 67.1563,240.275 71,230.5C 79.4705,208.088 88.1372,185.755 97,163.5C 117.471,140.359 137.971,117.192 158.5,94C 171.993,83.7563 186.66,75.923 202.5,70.5C 237.075,66.0824 270.408,70.5824 302.5,84C 370.967,117.515 406.967,172.515 410.5,249C 407.758,320.363 375.758,373.863 314.5,409.5 Z"/></g>
<g><path style="opacity:0.966" fill="#e66e78" d="M 178.5,76.5 C 167.416,82.809 157.249,90.4757 148,99.5C 130.374,120.794 112.374,141.794 94,162.5C 83.5377,187.889 73.8711,213.556 65,239.5C 64.3333,244.833 64.3333,250.167 65,255.5C 68.0025,272.849 71.0025,290.182 74,307.5C 80.0306,326.228 88.6972,343.561 100,359.5C 115.674,373.584 132.508,386.084 150.5,397C 192.551,417.366 236.884,425.532 283.5,421.5C 216.92,440.185 157.586,426.852 105.5,381.5C 54.0253,328.943 37.8586,266.943 57,195.5C 77.5829,135.416 118.083,95.7496 178.5,76.5 Z"/></g>
<g><path style="opacity:1" fill="#3e3737" d="M 308.5,188.5 C 312.516,216.006 325.182,239.173 346.5,258C 358.554,264.846 371.554,267.679 385.5,266.5C 385.5,267.5 385.5,268.5 385.5,269.5C 363.723,272.276 345.889,265.276 332,248.5C 324.064,238.299 317.397,227.299 312,215.5C 308.638,206.684 307.471,197.684 308.5,188.5 Z"/></g>
<g><path style="opacity:1" fill="#3f3737" d="M 219.5,189.5 C 220.5,189.5 221.5,189.5 222.5,189.5C 222.509,191.308 222.009,192.975 221,194.5C 213,206.5 205,218.5 197,230.5C 188.124,242.524 176.624,251.024 162.5,256C 146.742,261.439 130.742,265.939 114.5,269.5C 114.5,268.5 114.5,267.5 114.5,266.5C 128.2,262.858 141.867,259.025 155.5,255C 170.032,250.819 182.198,242.986 192,231.5C 201.436,217.614 210.603,203.614 219.5,189.5 Z"/></g>
<g><path style="opacity:1" fill="#413838" d="M 234.5,309.5 C 241.531,310.004 248.531,310.838 255.5,312C 265.879,316.793 276.545,320.793 287.5,324C 305.248,325.869 322.581,324.036 339.5,318.5C 340.5,318.833 341.167,319.5 341.5,320.5C 323.728,327.396 305.395,329.563 286.5,327C 273.574,322.366 260.574,318.033 247.5,314C 240.5,313.333 233.5,313.333 226.5,314C 214.849,317.035 203.016,319.535 191,321.5C 187.254,321.675 183.754,320.842 180.5,319C 179.663,317.989 179.33,316.822 179.5,315.5C 186.68,317.462 194.014,317.962 201.5,317C 212.461,313.673 223.461,311.173 234.5,309.5 Z"/></g>
</svg>
